 <svg  version="1.0" xmlns="http://www.w3.org/2000/svg"  width="300.000000pt" height="336.000000pt" viewBox="0 0 300.000000 336.000000"  preserveAspectRatio="xMidYMid meet">  <g transform="translate(0.000000,336.000000) scale(0.050000,-0.050000)" fill="#757ce8" stroke="none"> <path d="M2360 6694 c0 -15 -35 -46 -78 -70 -313 -176 -675 -533 -932 -919 -179 -267 -178 -262 -162 -945 31 -1330 39 -1452 108 -1620 33 -82 67 -190 75 -240 8 -49 35 -161 62 -249 26 -87 47 -183 47 -213 0 -30 32 -116 70 -189 77 -148 105 -497 45 -573 -37 -48 -329 -210 -455 -253 -214 -73 -516 -257 -485 -295 8 -10 7 -11 -3 -3 -10 8 -48 -8 -85 -36 -69 -53 -302 -169 -338 -169 -12 0 -68 -14 -125 -31 l-104 -31 0 -429 0 -429 633 0 c571 0 801 10 504 22 -119 5 -134 24 -71 87 19 19 30 42 24 51 -6 9 8 23 31 30 35 11 37 18 15 45 -22 28 -21 31 12 18 32 -12 34 -9 12 17 -21 26 -21 29 4 19 17 -6 42 -33 57 -60 14 -27 34 -49 44 -49 9 0 12 -9 5 -20 -7 -11 -1 -20 12 -20 14 0 19 -5 13 -12 -7 -7 10 -33 38 -59 l50 -46 -57 -9 c-31 -4 54 -9 189 -11 152 -2 245 5 245 17 0 11 -17 20 -38 20 -32 0 -80 76 -76 120 1 6 -23 36 -52 68 -29 31 -48 65 -42 75 10 16 -90 66 -104 52 -3 -4 33 -73 82 -155 97 -163 97 -180 4 -180 -96 1 -120 23 -95 88 19 51 18 54 -22 41 -36 -11 -41 -7 -32 29 6 23 4 38 -5 32 -54 -34 -136 228 -143 460 -4 123 -31 216 -59 199 -33 -21 -36 30 -5 120 23 68 26 100 10 116 -27 27 -115 -8 -119 -48 -19 -158 -30 -543 -17 -551 10 -6 7 -18 -7 -26 -13 -8 -28 -84 -34 -175 -11 -153 -13 -160 -60 -160 -28 0 -45 10 -40 23 5 12 -11 22 -35 22 -30 0 -43 -12 -43 -42 0 -35 12 -42 71 -40 59 2 72 -6 77 -43 4 -25 -3 -45 -15 -45 -11 0 -21 14 -21 31 0 16 -14 35 -30 42 -35 13 -95 -29 -79 -55 6 -10 -13 -18 -42 -18 -34 0 -50 9 -44 25 7 16 -12 26 -53 27 -34 2 -46 -1 -27 -6 96 -25 12 -45 -186 -44 -121 0 -215 8 -210 17 6 9 -12 22 -40 29 -28 7 -45 22 -39 33 7 10 5 20 -4 21 -9 0 -32 4 -51 8 -19 3 -35 -2 -35 -12 0 -10 8 -18 18 -18 10 0 14 -18 8 -40 -7 -26 -27 -40 -58 -40 -64 0 -66 82 -3 127 29 21 33 28 10 20 -32 -10 -35 8 -35 216 1 276 -3 270 192 320 196 50 385 148 540 279 129 110 405 258 480 258 25 0 101 35 167 78 66 42 144 83 172 91 225 56 323 315 240 629 -16 60 -24 117 -18 127 6 9 -14 54 -45 98 -52 74 -57 77 -71 39 -24 -63 -27 -53 -27 83 0 69 -12 170 -27 225 -15 55 -43 191 -62 302 -26 153 -48 219 -88 272 -63 83 -99 467 -56 598 19 56 17 91 -9 177 -30 104 -30 219 3 319 10 33 8 44 -6 35 -12 -8 -29 -3 -37 10 -8 14 -6 18 8 10 35 -22 41 11 21 127 -29 171 -38 423 -17 500 38 146 31 406 -12 412 -36 6 -38 -5 -31 -148 9 -192 -7 -184 -26 12 l-14 146 61 23 c69 26 93 68 61 106 -17 20 -8 34 37 57 33 17 87 72 121 124 34 51 107 124 162 163 110 77 116 88 70 126 -26 21 -46 8 -131 -88 -56 -62 -112 -113 -125 -113 -38 0 254 268 421 386 86 61 179 131 208 157 29 26 73 59 98 74 391 231 591 292 960 294 227 1 295 -5 311 -27 12 -15 45 -29 75 -31 37 -2 54 -14 54 -38 0 -40 41 -46 75 -12 18 18 27 16 36 -9 12 -30 18 -30 55 -4 37 26 44 25 69 -11 18 -26 42 -36 65 -29 20 6 43 2 50 -10 7 -11 21 -16 31 -9 10 6 13 -3 7 -19 -22 -58 115 -195 158 -157 34 31 33 35 -20 80 l-56 48 60 -38 c33 -21 78 -46 100 -54 25 -10 31 -19 15 -25 -54 -20 -23 -79 65 -122 82 -39 100 -62 92 -110 -2 -9 14 -41 34 -70 52 -76 154 -351 183 -494 14 -66 48 -178 76 -248 82 -208 136 -797 88 -969 -13 -47 -13 -73 0 -73 21 0 7 -146 -24 -250 -31 -103 -44 -510 -18 -542 16 -18 16 -28 3 -28 -12 0 -27 -20 -35 -45 -7 -25 -38 -99 -69 -165 -65 -137 -151 -432 -170 -580 -7 -55 -35 -138 -62 -184 -26 -46 -48 -106 -48 -133 0 -28 -10 -57 -22 -64 -38 -24 -77 -137 -55 -162 13 -16 -12 -56 -82 -130 -163 -173 -159 -220 40 -384 148 -123 371 -229 453 -216 13 3 75 -23 137 -56 62 -33 157 -66 211 -73 54 -7 98 -21 98 -30 0 -9 14 -12 30 -5 17 6 30 2 30 -8 0 -50 127 -84 156 -43 29 42 84 21 84 -31 0 -28 108 -79 237 -112 117 -29 183 -102 183 -202 0 -57 -8 -77 -31 -77 -22 0 -28 -12 -19 -39 13 -42 -108 -141 -173 -141 -34 0 -65 -51 -47 -80 5 -8 -9 -20 -31 -26 -22 -6 -38 -18 -35 -27 2 -9 -7 -37 -20 -62 -20 -36 -20 -45 0 -45 14 0 6 -14 -18 -30 -24 -17 -49 -57 -56 -90 -7 -33 -26 -60 -42 -60 -15 0 -28 -13 -28 -30 0 -16 9 -30 20 -30 11 0 20 11 20 23 0 13 5 18 12 12 31 -31 -17 -95 -72 -95 l-56 0 25 95 c58 213 253 555 372 651 82 66 112 134 60 134 -23 0 -41 -10 -41 -22 0 -12 -13 -17 -29 -11 -15 6 -38 -1 -50 -16 -17 -20 -16 -30 3 -37 14 -6 5 -12 -20 -12 -32 -2 -44 -12 -40 -37 3 -20 -5 -33 -20 -30 -14 3 -31 -10 -39 -30 -7 -19 -40 -59 -73 -90 -39 -35 -50 -55 -31 -56 21 0 18 -10 -13 -35 -22 -19 -37 -47 -32 -63 6 -18 -1 -23 -22 -15 -22 8 -29 3 -21 -17 6 -16 -4 -34 -23 -42 -27 -10 -28 -16 -7 -30 22 -14 20 -22 -8 -38 -19 -12 -35 -33 -35 -48 0 -15 -11 -32 -25 -37 -20 -7 -20 -17 0 -51 22 -37 21 -43 -10 -43 -30 -1 -31 -3 -5 -20 23 -15 24 -19 3 -20 -18 0 -24 -15 -17 -42 8 -30 3 -38 -17 -30 -15 5 -33 2 -40 -9 -7 -12 95 -19 268 -19 l280 0 16 65 c20 83 20 95 2 95 -8 0 -13 -4 -10 -9 3 -5 -13 -23 -35 -40 -22 -16 -29 -30 -16 -30 35 -1 8 -61 -27 -61 -16 0 -24 8 -18 18 6 10 -15 9 -48 -4 -33 -12 -65 -17 -71 -11 -22 23 15 77 53 77 22 0 34 9 27 20 -7 11 2 20 19 20 17 0 31 7 31 15 0 9 20 24 43 35 48 22 69 54 85 131 13 61 96 189 123 189 27 0 35 -161 10 -208 -15 -28 -15 -43 1 -53 13 -8 4 -22 -23 -36 -25 -13 -49 -45 -54 -73 -4 -27 -10 -62 -13 -77 -3 -14 -18 -34 -33 -44 -20 -13 2 -18 66 -19 l95 0 0 576 0 576 -135 49 c-74 27 -216 91 -315 141 -99 51 -191 88 -205 84 -14 -5 -25 0 -25 12 0 13 -42 22 -101 22 -67 0 -147 20 -237 58 -74 31 -166 64 -204 72 -134 29 -358 180 -358 242 0 14 23 59 50 100 28 41 63 115 78 166 15 51 59 164 98 252 39 88 94 255 122 372 53 218 89 331 140 443 84 185 127 401 131 657 1 83 9 196 18 250 48 309 -37 1352 -117 1428 -5 6 -13 40 -17 78 -32 326 -381 864 -668 1029 -52 30 -95 68 -95 84 0 25 -125 29 -900 29 -731 0 -900 -5 -900 -26z m2426 -1084 c6 -33 21 -100 33 -150 43 -178 45 -195 18 -151 -13 22 -27 76 -32 119 -4 44 -16 95 -26 115 -11 19 -19 57 -19 85 0 27 -9 55 -20 62 -11 7 -20 23 -20 36 0 41 54 -54 66 -116z m610 -4347 c4 -13 -2 -23 -14 -23 -12 0 -22 9 -22 20 0 11 -18 20 -40 20 -40 0 -52 21 -27 47 17 16 92 -31 103 -64z"/> <path d="M3250 6419 c-56 -36 -57 -39 -14 -39 25 0 65 18 89 40 56 52 7 51 -75 -1z"/> <path d="M3535 6398 c-19 -11 -35 -27 -35 -36 0 -29 60 -15 93 21 38 42 4 51 -58 15z"/> <path d="M2786 6333 c8 -21 -2 -40 -27 -53 -51 -28 -50 -60 2 -60 23 0 61 -11 85 -24 52 -29 171 -37 186 -12 6 9 19 11 29 5 11 -6 19 -2 19 10 0 25 -8 25 -105 3 -62 -15 -84 -11 -120 19 l-45 38 103 0 c73 1 106 10 114 31 20 50 16 56 -37 62 -33 3 -46 -2 -37 -17 9 -15 1 -17 -25 -7 -96 37 -155 39 -142 5z"/> <path d="M3090 6308 c-38 -59 97 -60 140 -2 13 18 29 29 34 23 6 -5 32 -1 58 9 37 14 21 18 -77 17 -107 -1 -128 -7 -155 -47z"/> <path d="M3705 6339 c-106 -15 -173 -50 -155 -80 6 -8 -1 -20 -15 -26 -14 -5 16 -10 65 -10 50 0 79 5 65 10 -43 17 -27 44 18 32 30 -8 39 -4 28 13 -10 17 0 20 38 10 39 -9 61 -3 81 25 17 21 29 26 29 12 1 -17 34 -24 106 -22 58 1 83 6 55 11 -27 4 -63 14 -80 20 -47 20 -121 22 -235 5z"/> <path d="M3456 6305 c-13 -15 -39 -24 -59 -18 -19 5 -46 -4 -59 -19 -12 -15 -48 -28 -80 -28 -59 0 -158 -37 -158 -60 0 -7 56 0 125 15 69 16 156 34 195 40 61 9 117 50 119 87 2 23 -60 11 -83 -17z"/> <path d="M4000 6214 c-27 -13 -77 -48 -110 -79 l-60 -55 56 0 c30 0 60 13 66 28 8 20 31 26 75 19 34 -6 86 -1 113 10 47 18 45 20 -38 34 -85 15 -86 16 -40 41 59 33 7 34 -62 2z"/> <path d="M3769 6189 c-56 -14 -150 -45 -210 -68 -60 -22 -125 -41 -144 -41 -19 0 -35 -10 -35 -21 0 -12 -10 -15 -23 -7 -14 9 -18 5 -9 -9 8 -13 5 -23 -7 -23 -11 0 -21 9 -21 20 0 11 -9 20 -21 20 -14 0 -13 -14 2 -41 18 -35 27 -38 53 -15 18 14 33 23 34 19 1 -4 39 3 85 15 45 12 111 26 146 30 35 4 74 17 87 30 12 12 47 22 78 22 61 0 150 70 109 86 -12 5 -68 -3 -124 -17z"/> <path d="M2456 6144 l-46 -51 68 47 c91 63 72 21 -30 -63 -45 -38 -77 -80 -72 -96 7 -20 -1 -23 -28 -13 -20 8 -30 8 -23 0 8 -8 -1 -26 -20 -41 -32 -25 -32 -26 5 -15 34 10 33 5 -10 -34 -33 -29 -38 -40 -15 -32 48 18 44 -20 -6 -51 -22 -14 -49 -58 -60 -98 -11 -40 -38 -94 -61 -120 l-41 -47 10 45 c13 63 11 61 -111 -91 -170 -211 -273 -423 -239 -491 17 -37 21 -38 24 -8 2 19 5 42 7 50 1 8 22 43 47 78 25 35 45 73 45 85 0 12 16 22 35 22 21 0 26 -6 14 -15 -25 -17 -57 -87 -52 -111 2 -10 -4 -12 -14 -6 -17 11 -63 -115 -63 -172 0 -16 28 -85 62 -153 63 -126 92 -163 58 -72 -28 73 -25 83 12 38 22 -28 28 -30 22 -7 -6 17 -3 71 6 120 9 48 22 150 29 226 15 148 39 232 68 232 9 0 13 21 9 47 -10 52 85 207 153 248 22 14 41 39 41 55 0 16 77 108 170 204 178 183 199 208 126 157 -57 -40 -96 -41 -45 -1 38 29 38 30 1 17 -27 -10 -34 -7 -24 10 8 12 32 23 53 23 21 0 70 18 108 40 39 21 71 35 71 29 0 -6 18 -1 41 11 68 37 28 53 -129 54 -136 1 -154 -4 -196 -50z m-510 -1160 c-12 -167 -27 -198 -38 -79 -6 60 29 265 43 251 3 -3 1 -81 -5 -172z"/> <path d="M2221 6069 c-43 -40 -89 -105 -102 -145 -13 -41 -53 -123 -89 -184 -94 -159 -136 -246 -112 -231 37 23 24 -11 -28 -73 -48 -57 -71 -151 -30 -126 11 7 20 22 20 34 0 12 34 60 75 106 139 158 165 193 165 227 0 18 19 69 42 113 l43 80 -43 -38 c-23 -21 -42 -28 -42 -16 0 11 27 40 60 64 33 23 66 67 73 96 7 30 30 79 51 109 54 77 11 69 -83 -16z m-201 -465 c0 -9 -13 -34 -28 -55 -38 -51 -62 -25 -29 29 27 42 57 56 57 26z"/> <path d="M4265 6058 c-69 -26 -37 -125 33 -102 17 6 22 0 14 -14 -8 -12 1 -28 22 -36 20 -7 47 -28 60 -45 39 -51 7 59 -35 119 -19 28 -35 58 -35 67 -1 27 -12 29 -59 11z"/> <path d="M2046 6038 c-12 -12 -18 -35 -12 -50 6 -16 2 -28 -9 -28 -10 0 -29 -23 -42 -51 -30 -65 -29 -70 6 -56 17 6 28 17 26 24 -2 7 13 43 32 79 38 72 38 121 -1 82z"/> <path d="M4040 6030 c0 -16 -18 -30 -39 -30 -50 0 -181 -62 -181 -85 0 -9 -9 -12 -20 -5 -11 7 -20 5 -20 -4 0 -9 -23 -17 -52 -19 -28 -2 -71 -21 -95 -44 -42 -39 -50 -43 -93 -43 -34 0 -180 -143 -167 -164 6 -11 37 7 67 41 30 33 63 52 73 43 9 -9 48 5 86 32 39 26 57 48 42 48 -20 0 -17 9 10 29 37 28 169 43 169 20 0 -22 -50 -59 -90 -66 -80 -14 -127 -51 -75 -59 40 -6 42 -10 15 -37 -16 -16 -39 -24 -50 -17 -11 7 -20 3 -20 -9 0 -28 46 -27 74 1 13 13 34 16 49 6 15 -9 43 -14 62 -11 24 4 35 -8 35 -35 0 -22 9 -45 20 -52 12 -7 15 -21 9 -32 -6 -10 -18 -15 -26 -10 -7 5 -10 -28 -6 -73 l8 -82 27 66 c16 36 28 87 28 113 0 27 10 48 22 48 12 0 17 15 10 33 -10 26 -7 28 15 9 35 -28 62 21 30 53 -13 13 -2 17 35 10 51 -10 52 -13 18 -38 -21 -15 -32 -32 -26 -38 15 -15 147 40 164 68 7 12 28 16 46 9 25 -10 30 -2 22 39 -5 28 3 72 18 98 26 45 27 44 15 -21 -9 -46 -7 -63 9 -53 60 37 9 158 -81 189 -63 22 -63 22 -27 -18 24 -27 28 -40 11 -40 -21 0 -21 -6 -1 -30 21 -25 18 -30 -20 -30 -30 0 -41 9 -33 28 6 16 -2 34 -18 40 -20 7 -29 -4 -30 -34 l-2 -44 -18 45 c-19 49 9 155 38 137 9 -6 16 3 16 19 0 16 -12 29 -26 29 -15 0 -27 -13 -27 -30z m-130 -150 c-18 -28 57 -25 86 4 16 16 24 17 24 2 0 -28 -48 -46 -122 -46 -51 0 -56 4 -34 29 29 33 65 42 46 11z"/> <path d="M3085 5991 c-47 -10 -85 -30 -85 -44 0 -15 13 -21 30 -14 17 6 30 2 30 -9 0 -12 30 -11 81 4 45 13 80 32 79 42 -2 10 13 25 34 33 51 20 -61 12 -169 -12z"/> <path d="M3490 5959 c-44 -22 -64 -35 -45 -30 61 17 100 -8 71 -46 -15 -18 7 -6 48 27 119 97 77 125 -74 49z"/> <path d="M2766 5901 c-19 -23 -51 -41 -72 -41 -66 0 -335 -284 -310 -328 15 -27 15 -34 -1 -24 -15 9 -23 -4 -23 -37 0 -28 -10 -51 -21 -51 -12 0 -16 -9 -9 -20 20 -32 46 -23 60 20 12 37 17 38 69 11 52 -28 81 -24 81 10 0 9 -17 11 -38 5 -172 -45 14 251 264 420 41 28 66 57 55 63 -11 7 -36 -6 -55 -28z"/> <path d="M3358 5878 c-2 -10 -4 -29 -5 -43 -2 -14 -12 -26 -23 -27 -11 -1 -63 -21 -117 -45 -53 -23 -103 -43 -110 -43 -20 0 -163 -120 -163 -137 0 -8 -50 -67 -111 -130 -81 -83 -108 -125 -99 -152 6 -21 2 -43 -9 -50 -11 -7 -19 -43 -16 -80 3 -37 12 -63 20 -58 53 33 2 -77 -53 -115 -38 -26 -66 -51 -62 -57 3 -6 -20 -11 -52 -11 -62 0 -77 19 -28 37 16 7 24 25 18 42 -7 17 -19 26 -28 21 -9 -6 -20 1 -25 15 -5 15 -18 6 -34 -23 -15 -28 -18 -52 -7 -60 11 -6 25 -30 33 -52 12 -37 11 -37 -14 -5 -15 19 -34 35 -42 35 -9 0 -9 -16 -2 -35 12 -33 11 -33 -21 -1 -28 28 -30 43 -11 90 12 31 26 81 31 111 17 100 111 275 148 275 29 -1 29 -4 5 -19 -17 -10 -24 -24 -17 -31 17 -17 96 71 96 107 0 24 -6 24 -37 -4 -20 -18 -46 -33 -58 -33 -13 0 -37 -20 -54 -44 -29 -43 -31 -43 -33 -5 0 21 -6 28 -11 14 -6 -14 -18 -21 -26 -15 -9 5 -29 -6 -44 -25 -24 -31 -23 -32 6 -9 23 17 38 19 46 5 8 -12 4 -21 -8 -21 -11 0 -21 -22 -21 -49 0 -27 -8 -53 -17 -59 -10 -6 -29 -67 -43 -136 -14 -69 -38 -141 -54 -158 -15 -18 -31 -61 -35 -95 l-8 -63 110 10 c60 5 119 15 131 23 13 8 16 4 8 -10 -35 -56 48 -17 88 42 34 51 41 56 34 20 -6 -25 -2 -50 8 -56 10 -7 13 -21 6 -33 -8 -12 -2 -17 14 -11 15 5 24 22 20 38 -23 77 -26 142 -7 130 13 -8 17 2 12 24 -13 49 52 117 76 79 12 -19 16 -14 17 17 0 24 11 48 25 54 15 6 11 10 -9 11 -24 2 -31 12 -22 35 8 21 5 29 -9 20 -11 -7 -26 1 -33 19 -19 49 -14 82 8 48 17 -27 20 -27 22 0 4 44 4 46 -12 98 -9 29 -7 42 5 35 25 -15 125 69 125 105 0 16 13 21 32 14 20 -8 28 -3 23 13 -11 29 161 200 186 185 27 -17 116 33 149 83 17 26 44 47 60 47 15 0 47 20 69 44 26 28 41 34 41 16 0 -14 5 -21 12 -15 6 7 4 24 -5 38 -19 31 -86 41 -89 15z"/> <path d="M4442 5815 c-12 -30 -9 -55 8 -75 13 -16 30 -43 36 -60 6 -17 12 -6 12 25 1 30 -7 55 -18 55 -11 0 -20 14 -20 31 0 17 8 27 17 21 9 -6 16 3 16 19 0 44 -32 34 -51 -16z"/> <path d="M3040 5819 c0 -12 -8 -16 -19 -10 -10 6 -24 2 -31 -9 -7 -11 -21 -16 -30 -10 -24 15 -196 -71 -209 -105 -13 -32 54 -17 118 28 53 36 82 34 51 -3 -18 -22 -18 -30 -2 -30 13 0 31 20 41 45 10 25 19 32 20 17 1 -22 10 -20 41 8 22 20 40 29 40 20 0 -9 17 0 39 19 22 20 49 28 63 20 15 -10 19 -7 10 8 -18 29 -132 31 -132 2z"/> <path d="M1972 5751 c-17 -27 -32 -59 -32 -70 0 -12 -11 -19 -25 -16 -13 3 -49 -44 -79 -105 -75 -155 -74 -153 -88 -125 -6 14 -20 20 -29 14 -10 -6 -13 3 -6 21 7 18 24 28 38 22 14 -5 30 2 35 16 6 16 -6 24 -32 22 -44 -3 -115 -130 -73 -130 14 0 14 -12 0 -37 -20 -39 -27 -124 -21 -290 4 -109 19 -107 53 8 25 85 17 107 -12 34 -17 -42 -19 -40 -20 16 -2 97 58 248 113 283 41 27 152 213 210 351 21 50 6 43 -32 -14z"/> <path d="M4320 5760 c0 -22 -11 -40 -25 -40 -17 -1 -15 -7 5 -20 27 -17 27 -19 0 -20 -17 0 -39 -20 -50 -45 -11 -25 -37 -45 -57 -45 -27 0 -72 -60 -155 -208 -134 -235 -132 -229 -78 -212 22 7 40 4 40 -6 0 -10 -18 -70 -40 -134 -46 -134 -45 -130 -23 -130 15 0 143 296 143 330 0 36 142 305 175 330 51 41 99 51 71 16 -26 -33 -30 -156 -5 -156 11 0 19 30 19 66 0 37 14 109 32 161 18 51 27 107 21 123 -17 44 -73 37 -73 -10z"/> <path d="M4531 5707 c12 -124 29 -137 29 -22 0 51 -8 98 -19 104 -11 7 -15 -26 -10 -82z"/> <path d="M2605 5670 c-25 -39 -54 -70 -65 -70 -11 0 -20 -13 -20 -30 0 -32 24 -40 48 -15 9 8 26 15 39 15 12 0 23 14 24 30 2 42 32 107 58 125 13 9 10 14 -9 14 -16 0 -50 -31 -75 -69z"/> <path d="M4427 5691 c6 -15 -7 -65 -29 -109 -38 -80 -52 -433 -15 -410 25 15 106 197 111 248 2 28 8 73 12 100 4 28 -4 68 -19 89 -15 22 -27 56 -27 75 0 20 -10 36 -22 36 -12 0 -17 -13 -11 -29z"/> <path d="M2779 5564 c-92 -97 -104 -117 -69 -117 16 0 24 7 18 16 -6 10 5 23 25 31 37 14 125 105 126 131 2 32 -32 12 -100 -61z"/> <path d="M2266 5522 c-34 -31 -77 -85 -96 -121 l-33 -66 72 56 c85 64 159 162 135 177 -10 5 -45 -15 -78 -46z"/> <path d="M3591 5549 c-22 -16 -49 -26 -60 -22 -12 4 -22 -13 -24 -38 -1 -26 11 -52 27 -58 22 -8 27 -2 18 22 -11 27 -8 29 18 7 16 -14 30 -17 30 -7 0 9 9 4 20 -13 17 -26 19 -25 20 4 0 42 -33 65 -47 31 -6 -16 -10 -13 -11 8 -2 39 45 82 68 62 9 -8 10 -4 2 10 -17 30 -13 31 -61 -6z"/> <path d="M4620 5490 c-12 -30 -16 -60 -11 -66 6 -6 11 2 11 18 1 23 4 23 20 -2 11 -16 19 -43 19 -60 0 -26 -2 -26 -18 -1 -14 22 -25 13 -49 -40 -23 -49 -29 -55 -21 -19 8 37 -1 30 -32 -27 -23 -42 -37 -90 -31 -106 7 -16 3 -24 -8 -17 -11 7 -20 27 -20 45 0 31 -2 31 -33 1 -29 -29 -30 -48 -8 -157 13 -69 28 -174 32 -234 5 -60 26 -170 47 -242 21 -73 44 -167 51 -208 12 -68 19 -75 77 -75 35 0 84 -6 108 -12 l44 -12 -38 103 c-34 93 -67 151 -102 181 -6 6 -17 44 -24 85 -12 80 9 98 46 40 20 -30 21 -28 12 15 -9 47 -9 48 19 12 16 -22 34 -70 41 -107 8 -42 19 -60 28 -45 12 19 19 18 31 -2 9 -15 6 -29 -7 -33 -32 -11 -29 -66 4 -111 38 -49 55 42 28 141 -11 39 -15 87 -10 108 6 20 2 37 -8 37 -10 0 -18 -16 -19 -35 0 -32 -2 -32 -22 2 -13 23 -16 85 -8 165 11 103 8 134 -17 159 -32 32 -42 100 -33 226 3 44 -3 63 -17 54 -15 -9 -20 26 -18 108 4 142 -30 200 -64 111z m20 -411 c0 -76 -8 -117 -20 -109 -28 17 -25 -20 9 -101 16 -38 24 -69 19 -69 -43 0 -67 148 -44 270 31 161 36 162 36 9z"/> <path d="M3085 5445 c-20 -30 -36 -68 -35 -85 1 -16 -7 -43 -19 -58 -14 -19 -2 -16 34 7 52 34 54 38 20 65 -19 16 -26 25 -15 20 11 -5 41 17 67 49 35 44 39 57 16 57 -17 0 -47 -25 -68 -55z"/> <path d="M3262 5454 c-13 -25 -22 -55 -18 -66 3 -11 -25 -49 -64 -84 l-70 -65 75 40 c41 22 82 40 90 40 8 -1 18 13 21 30 4 17 -3 31 -15 31 -11 0 -21 16 -21 35 1 28 4 29 18 7 16 -25 62 24 62 67 0 30 -56 5 -78 -35z"/> <path d="M3354 5456 c-12 -44 -11 -45 17 -7 28 38 31 37 37 -14 4 -42 70 -42 67 0 -2 21 -12 39 -24 39 -12 1 -36 7 -53 15 -23 9 -36 0 -44 -33z"/> <path d="M1540 5369 c-11 -29 -20 -63 -20 -76 0 -14 -9 -36 -20 -49 -11 -13 -5 -11 13 5 39 34 90 171 64 171 -10 0 -27 -23 -37 -51z"/> <path d="M2912 5379 c-22 -21 -33 -45 -26 -52 7 -7 3 -31 -8 -55 -13 -28 -4 -23 30 17 82 97 86 173 4 90z"/> <path d="M2241 5353 c-12 -12 -21 -29 -21 -39 0 -10 -17 -42 -37 -71 -46 -67 -67 -123 -45 -123 10 0 31 29 48 65 39 81 111 159 134 145 9 -6 22 -3 28 7 17 27 -82 41 -107 16z"/> <path d="M2251 5236 c-17 -25 -31 -57 -31 -72 0 -15 -29 -68 -64 -117 -54 -74 -60 -92 -35 -108 16 -10 19 -19 6 -19 -12 0 -27 -22 -32 -49 -9 -49 20 -61 50 -21 9 12 15 10 15 -6 0 -20 8 -19 31 4 17 18 27 39 21 49 -6 9 6 34 25 55 20 22 32 50 28 63 -4 13 11 52 35 85 23 33 37 60 29 60 -8 0 -5 11 5 25 51 66 50 102 -3 67 -42 -27 -48 -28 -38 -2 17 44 -6 36 -42 -14z"/> <path d="M2566 5226 c-6 -14 -23 -26 -38 -26 -15 0 -28 -18 -28 -40 0 -52 60 -53 74 0 6 22 17 36 24 31 8 -5 25 8 37 29 20 32 18 37 -18 34 -23 -1 -46 -14 -51 -28z"/> <path d="M1600 5158 c-1 -49 -6 -60 -19 -39 -14 22 -21 15 -31 -30 -8 -32 -19 -77 -25 -99 -10 -39 -9 -39 31 -3 41 37 82 202 56 227 -6 7 -12 -18 -12 -56z"/> <path d="M3840 5002 c0 -13 -8 -19 -18 -13 -19 12 -42 -33 -42 -82 0 -16 10 -23 21 -16 12 7 17 18 10 24 -6 7 4 28 22 48 18 21 27 43 20 50 -7 8 -13 3 -13 -11z"/> <path d="M1581 4971 c-14 -17 -22 -64 -18 -109 4 -43 1 -74 -8 -69 -8 5 -15 -9 -15 -32 0 -45 31 -56 47 -16 5 14 11 7 11 -16 1 -23 -8 -51 -21 -64 -47 -47 -33 -285 17 -285 24 0 47 15 53 35 60 228 60 229 32 246 -15 9 -32 13 -38 10 -6 -4 -13 66 -16 155 -6 180 -9 188 -44 145z"/> <path d="M1723 4966 c-23 -44 -15 -189 15 -242 15 -26 19 -14 18 51 0 47 -7 85 -14 85 -7 0 -13 18 -13 39 0 29 6 34 25 17 31 -25 36 17 8 62 -14 22 -22 20 -39 -12z"/> <path d="M2728 4885 c9 -15 3 -25 -16 -25 -19 0 -26 -11 -19 -30 7 -20 21 -24 44 -12 18 9 47 12 63 7 17 -6 26 -7 20 -3 -5 5 -32 26 -58 48 -27 22 -42 29 -34 15z"/> <path d="M2047 4415 c-5 -8 -45 -15 -88 -15 -55 0 -79 -9 -79 -29 0 -35 -133 -58 -283 -48 -101 7 -107 4 -113 -43 -12 -115 209 -162 312 -66 139 130 537 201 625 113 14 -14 -42 -18 -175 -13 l-196 8 45 -40 c32 -27 38 -42 20 -50 -14 -6 -4 -6 22 0 51 13 186 14 264 2 70 -10 139 18 139 57 0 36 68 24 122 -23 17 -16 38 -28 45 -28 156 0 249 -344 152 -559 -202 -444 -907 -446 -1094 -2 -49 116 -63 180 -44 192 49 30 21 224 -33 238 -68 17 -67 19 -45 -109 42 -243 60 -316 96 -383 23 -44 31 -81 21 -98 -25 -39 -3 -63 43 -48 26 8 56 -1 84 -27 24 -22 72 -54 107 -71 35 -18 68 -48 74 -68 11 -32 32 -34 240 -22 351 21 465 98 612 411 46 97 91 192 101 211 25 46 24 60 -3 44 -23 -15 -57 24 -58 64 0 40 133 72 239 57 119 -16 168 -48 141 -90 -16 -26 -23 -24 -50 14 -41 59 -230 46 -230 -16 0 -11 11 -14 24 -6 95 59 197 -12 247 -172 127 -410 360 -595 734 -585 90 2 95 4 95 30 0 14 46 42 102 62 134 47 262 176 306 306 24 73 92 397 92 442 0 2 36 27 80 55 124 78 109 121 -51 149 -72 12 -139 17 -149 11 -10 -6 -40 2 -66 19 -55 36 -228 73 -354 74 -67 1 -80 6 -50 18 34 14 35 16 5 18 -45 1 -66 -6 -61 -21 8 -23 -103 -14 -133 9 -22 18 -25 17 -13 -4 13 -20 1 -25 -51 -21 -37 4 -80 -2 -95 -11 -18 -11 -24 -10 -15 4 8 14 -24 24 -90 28 -68 5 -105 -1 -112 -18 -5 -14 -16 -20 -25 -15 -14 9 -46 -71 -33 -83 3 -3 30 8 61 24 31 16 65 23 76 16 11 -6 -28 -37 -87 -67 -157 -80 -566 -68 -677 20 -128 102 -731 222 -773 155z m2359 -189 c44 -30 92 -75 108 -100 24 -36 38 -41 68 -25 41 22 78 11 78 -23 0 -11 -25 -29 -56 -40 l-57 -19 17 -130 c70 -522 -706 -817 -1030 -392 -214 282 -169 624 96 727 136 53 284 74 261 38 -20 -33 54 -43 127 -18 l72 25 -70 14 c-39 9 13 11 119 6 165 -8 199 -16 267 -63z"/> <path d="M3599 4087 c-73 -58 -90 -83 -93 -143 -3 -39 -9 -84 -15 -98 -6 -16 6 -26 31 -26 32 0 38 -9 28 -40 -10 -30 -4 -40 25 -40 20 0 48 -11 61 -24 19 -19 24 -19 24 0 0 16 20 21 55 16 58 -10 238 -19 280 -15 56 6 20 37 -45 39 -116 5 -290 63 -290 98 0 23 14 28 55 20 158 -32 310 -39 324 -15 23 36 143 37 206 3 61 -34 74 -82 21 -82 -44 0 -10 -34 43 -43 34 -6 39 5 40 86 0 51 7 89 15 85 26 -17 36 30 16 81 -19 50 -23 51 -62 24 -39 -27 -53 -25 -158 28 -66 34 -144 58 -182 57 l-68 -2 60 -15 c71 -17 197 -80 185 -93 -5 -4 -61 10 -125 32 -117 40 -299 54 -318 24 -5 -9 -14 -42 -20 -73 -13 -69 -29 -88 -50 -55 -30 49 -1 140 50 153 54 13 61 35 22 67 -19 16 -48 4 -115 -49z m389 -99 c45 -17 40 -62 -10 -89 -53 -28 -63 -17 -47 49 15 58 13 57 57 40z"/> <path d="M4482 4061 c25 -110 38 -127 38 -48 0 33 -13 77 -29 98 -25 35 -26 29 -9 -50z"/> <path d="M3669 3422 c40 -65 266 -118 352 -84 43 17 44 20 9 22 -129 10 -290 40 -337 65 -27 13 -34 12 -24 -3z"/> <path d="M2552 4268 c-8 -20 6 -28 50 -28 64 0 64 28 0 45 -23 6 -44 -1 -50 -17z"/> <path d="M2540 4094 c39 -12 81 -33 95 -46 13 -14 36 -28 50 -33 14 -6 18 -17 7 -27 -10 -11 -21 -8 -26 7 -5 14 -19 25 -31 25 -12 0 -6 -17 14 -38 33 -37 32 -40 -6 -60 -55 -30 -53 -32 -50 58 2 62 -5 80 -30 82 -138 7 -250 -6 -353 -42 -93 -32 -113 -34 -89 -11 17 17 71 44 120 61 l89 29 -87 -10 c-99 -12 -167 -43 -252 -116 -44 -38 -66 -46 -85 -30 -19 16 -26 15 -26 -6 0 -15 -13 -52 -29 -82 -16 -31 -20 -55 -9 -55 11 0 15 -8 9 -19 -6 -10 17 -4 53 14 35 18 53 36 39 41 -14 4 7 25 46 46 78 42 243 51 255 15 6 -16 66 -23 182 -21 184 3 218 -17 129 -76 -34 -23 -106 -30 -288 -30 -134 0 -251 -7 -260 -16 -9 -9 -1 -10 18 -3 20 7 59 -5 95 -31 34 -25 68 -38 76 -31 7 7 0 22 -17 32 -46 29 39 23 111 -9 35 -15 77 -20 102 -11 23 9 53 8 68 -1 14 -9 39 -11 55 -5 15 5 50 -2 78 -16 39 -22 53 -22 65 -2 9 14 33 26 55 28 30 2 38 14 31 49 -5 25 -17 41 -26 35 -10 -6 -18 -1 -18 11 0 12 -10 16 -23 8 -14 -8 -18 -5 -10 7 7 12 -2 27 -22 33 -19 6 1 5 45 -1 44 -7 91 -13 105 -13 14 0 25 -19 26 -42 0 -39 3 -38 29 8 38 66 38 133 0 147 -16 7 -30 30 -30 52 0 26 -13 41 -35 41 -30 1 -31 4 -5 22 26 19 26 20 -3 11 -18 -5 -67 2 -110 18 -42 15 -104 27 -137 26 l-60 -1 70 -22z m-194 -134 c12 -45 -9 -50 -71 -17 -40 21 -41 23 -6 49 43 31 62 24 77 -32z"/> <path d="M4681 4021 c-25 -45 -23 -218 2 -233 19 -12 21 0 25 157 2 129 2 130 -27 76z"/> <path d="M4751 3635 c-25 -81 -29 -135 -11 -135 20 0 23 8 29 105 3 58 -5 72 -18 30z"/> <path d="M2610 3476 c-22 -13 -80 -25 -129 -27 -49 -2 -92 -11 -95 -21 -3 -10 -53 -16 -111 -14 -94 4 -99 3 -45 -15 104 -36 450 34 450 90 0 17 -26 12 -70 -13z"/> <path d="M1691 3425 c-4 -4 -2 -24 3 -44 10 -38 86 0 86 42 0 14 -75 15 -89 2z"/> <path d="M3087 3392 c-12 -14 -27 -61 -33 -104 -7 -43 -17 -94 -25 -113 -20 -52 22 -42 84 20 48 48 50 56 19 62 -29 5 -33 21 -24 85 12 86 12 87 -21 50z"/> <path d="M4503 3295 c3 -25 -2 -58 -12 -75 -16 -26 -14 -26 15 -3 37 31 47 123 13 123 -12 0 -19 -20 -16 -45z"/> <path d="M2665 3265 c-20 -19 -71 -53 -113 -75 -42 -22 -87 -56 -99 -75 -13 -19 -45 -35 -73 -35 -39 -1 -43 -5 -21 -19 31 -20 33 -19 -69 -50 -17 -6 -24 -22 -17 -41 10 -26 3 -28 -41 -11 -43 16 -52 14 -52 -12 0 -28 -6 -27 -55 4 -35 23 -46 25 -32 7 18 -21 16 -34 -5 -54 -15 -14 -28 -20 -28 -14 0 6 -14 0 -31 -14 -97 -79 -109 -99 -109 -175 0 -43 -11 -85 -23 -93 -15 -9 -20 -4 -13 14 6 15 -2 41 -19 56 -26 24 -28 22 -16 -14 7 -24 4 -61 -8 -83 -39 -71 70 -81 134 -11 45 49 46 53 10 42 -38 -12 -40 -6 -34 82 4 53 8 103 8 111 1 8 10 15 21 15 11 0 18 -7 15 -15 -9 -26 14 -28 71 -6 31 11 74 21 95 21 22 0 39 9 39 20 0 10 24 25 54 33 29 7 113 47 187 89 87 49 148 72 176 64 37 -9 43 -2 46 52 3 89 3 88 53 138 43 43 44 84 3 84 -11 0 -35 -16 -54 -35z"/> <path d="M1920 3240 c0 -23 -13 -40 -31 -40 -54 0 -28 -103 31 -124 37 -14 44 -12 28 4 -14 13 -19 59 -13 111 6 49 5 89 -2 89 -7 0 -13 -18 -13 -40z"/> <path d="M3610 3105 c0 -100 5 -114 36 -109 21 4 48 -2 60 -12 64 -49 262 -144 301 -144 59 0 144 -91 171 -180 19 -67 20 -68 16 -10 -2 34 9 71 26 84 26 21 25 25 -8 25 -21 1 -33 7 -26 14 22 22 -28 91 -58 79 -19 -7 -28 4 -28 34 -1 32 -5 37 -18 17 -14 -23 -22 -21 -39 10 -12 20 -22 29 -22 19 -1 -10 -23 6 -50 35 -27 29 -63 53 -80 53 -17 0 -31 14 -31 30 0 17 -10 30 -22 30 -12 0 -49 23 -82 50 -32 28 -76 50 -96 50 -20 0 -40 9 -43 20 -4 11 -7 -31 -7 -95z"/> <path d="M3183 3074 c-49 -53 -56 -118 -16 -151 32 -27 54 -10 39 31 -9 24 -15 24 -28 3 -13 -20 -17 -17 -18 12 0 21 20 59 43 85 24 25 39 50 34 56 -6 5 -30 -11 -54 -36z"/> <path d="M2672 2942 c4 -34 -2 -62 -14 -62 -11 0 -15 9 -8 20 7 11 5 20 -4 20 -30 0 -72 -89 -79 -168 -3 -44 -16 -89 -28 -101 -16 -15 -21 -12 -18 9 8 59 -1 82 -26 68 -14 -8 -8 4 12 27 20 23 31 51 25 62 -7 11 2 34 19 51 29 29 29 32 0 32 -17 0 -31 -10 -31 -21 0 -12 -17 -16 -39 -9 -29 9 -46 -2 -69 -44 -26 -47 -31 -50 -32 -16 -1 38 -3 38 -29 4 -16 -22 -30 -27 -35 -13 -4 12 -8 -17 -9 -64 -1 -48 -9 -114 -18 -147 -14 -54 -12 -57 18 -33 18 16 33 45 33 67 0 53 36 116 66 116 15 0 16 -6 4 -15 -11 -8 -23 -45 -27 -82 -6 -67 -83 -218 -83 -165 0 18 -16 11 -43 -20 l-43 -48 12 70 c7 39 18 90 26 115 7 26 4 45 -8 45 -12 0 -25 -16 -30 -35 -10 -41 2 40 17 119 16 79 -86 25 -124 -65 -31 -74 -35 -102 -7 -59 13 21 15 5 8 -50 -8 -53 -5 -71 8 -53 21 30 54 -125 33 -158 -16 -27 19 -23 47 5 18 18 23 2 19 -70 -3 -69 -12 -94 -34 -95 -25 0 -24 -4 4 -21 34 -20 49 -61 20 -55 -8 2 -31 -4 -52 -13 -60 -26 -106 35 -76 102 31 68 18 81 -40 40 -57 -40 -77 -40 -77 -2 0 17 9 30 20 30 11 0 20 14 20 30 0 17 -7 30 -16 30 -9 0 -14 38 -11 85 l6 85 -29 -60 c-16 -33 -28 -46 -27 -30 5 87 -2 105 -33 80 -25 -20 -30 -19 -30 8 0 17 -9 32 -20 32 -11 0 -20 -11 -19 -25 0 -28 48 -97 61 -90 5 3 -5 -6 -21 -20 -16 -14 -19 -25 -7 -25 30 0 69 -165 45 -189 -37 -37 -19 -53 25 -22 56 39 89 40 57 2 -13 -15 -21 -63 -17 -105 l7 -76 25 86 c14 47 35 80 45 73 11 -6 14 -20 8 -30 -6 -11 -3 -19 7 -19 10 0 14 -22 9 -50 -5 -27 -18 -50 -29 -50 -10 0 -13 -9 -6 -20 7 -11 -6 -20 -28 -20 -22 0 -45 -8 -51 -18 -6 -10 16 -16 48 -14 47 3 55 -1 38 -22 -12 -14 -30 -21 -39 -15 -10 6 -18 -4 -18 -24 0 -27 5 -30 24 -11 33 33 57 30 44 -5 -10 -24 -3 -25 38 -6 41 20 44 28 21 51 -15 15 -27 37 -27 49 0 13 12 6 27 -14 15 -21 37 -31 50 -23 14 9 23 1 23 -17 0 -18 -20 -40 -45 -50 l-45 -17 45 -18 c41 -15 43 -21 18 -55 -27 -37 -28 -37 -42 5 -7 24 -22 44 -32 44 -24 0 -24 -5 0 -67 13 -35 11 -59 -10 -86 -32 -43 -38 -95 -9 -77 12 7 15 21 9 31 -6 11 2 19 19 19 19 0 26 -11 19 -30 -6 -16 -1 -30 11 -30 12 0 22 -10 22 -21 0 -12 -7 -17 -16 -11 -50 31 -60 -68 -11 -107 64 -50 111 -54 93 -8 -9 23 -5 29 11 19 12 -8 23 -27 23 -43 0 -16 10 -29 22 -29 14 0 9 22 -12 53 -33 50 -33 52 -1 40 19 -7 38 -13 42 -13 4 0 3 -14 -4 -30 -6 -16 -1 -30 11 -30 12 0 23 11 24 25 1 14 10 -3 20 -37 13 -47 33 -66 76 -75 32 -6 83 -34 113 -62 43 -40 61 -46 82 -28 22 18 25 16 16 -8 -15 -39 109 -85 209 -79 38 2 80 -6 94 -17 43 -37 253 -43 331 -10 68 28 122 43 241 65 30 6 65 23 78 38 13 15 35 28 51 28 24 0 107 68 234 192 79 77 246 288 228 288 -5 0 3 46 17 103 27 102 22 148 -13 126 -11 -6 -21 5 -22 25 -2 20 -6 54 -8 76 -2 22 -5 65 -6 95 -4 69 -43 73 -43 5 0 -27 7 -50 15 -50 8 0 15 -38 15 -85 0 -69 7 -84 35 -82 19 1 35 -6 35 -16 0 -11 -16 -18 -35 -16 -68 7 -78 -2 -78 -62 0 -76 -37 -119 -52 -60 -6 22 -3 36 7 30 10 -6 -1 21 -24 60 -23 39 -44 71 -46 71 -18 0 -4 -102 22 -156 26 -54 27 -71 7 -83 -15 -10 -17 -19 -5 -24 12 -4 8 -18 -8 -33 -18 -16 -28 -18 -28 -4 0 12 -11 16 -25 8 -14 -8 -18 -7 -10 2 8 9 6 27 -4 39 -10 12 -24 54 -31 92 -12 66 -11 67 20 29 31 -39 32 -39 19 10 -16 59 -49 101 -49 62 0 -22 -6 -22 -30 -2 -16 13 -27 45 -25 71 3 38 9 43 33 23 24 -20 27 -17 17 21 -6 25 -3 50 6 56 10 6 24 -13 31 -42 10 -39 23 -50 51 -43 20 6 37 2 37 -8 0 -26 55 -22 72 5 10 16 3 20 -20 11 -28 -11 -32 -6 -22 26 7 22 4 40 -7 40 -13 0 -13 23 -2 65 25 91 30 238 9 285 -16 36 -14 37 16 13 30 -25 37 -20 63 40 29 67 29 67 30 12 1 -84 41 -66 43 20 1 41 5 113 10 160 4 47 -1 85 -12 85 -10 0 -14 -16 -8 -35 11 -33 10 -33 -18 0 -39 48 -54 44 -54 -14 0 -57 -39 -91 -42 -37 -2 20 -1 48 1 63 8 61 -125 152 -257 176 l-49 9 49 -40 c34 -29 39 -41 18 -42 -23 -1 -20 -9 10 -32 28 -22 31 -30 10 -27 -69 9 -86 0 -60 -30 13 -17 24 -85 24 -152 0 -87 6 -117 21 -102 12 12 20 62 18 112 -2 50 6 91 17 91 34 0 50 -9 45 -26 -4 -10 2 -12 13 -5 10 6 23 0 29 -14 7 -19 15 -18 32 5 17 24 20 17 11 -30 -5 -33 -5 -49 2 -35 6 14 21 25 32 25 13 0 11 -12 -4 -30 -32 -39 -60 -38 -90 3 -20 28 -22 22 -14 -35 5 -37 3 -62 -6 -54 -14 13 -110 -77 -110 -104 0 -8 23 -10 51 -5 37 7 50 2 47 -17 -9 -49 25 -198 45 -198 11 0 6 -13 -10 -30 -36 -36 -55 -39 -48 -8 3 13 -6 27 -20 32 -14 5 -25 0 -25 -12 0 -12 -8 -22 -18 -22 -11 0 -16 32 -12 70 3 39 -1 75 -10 80 -18 11 -38 -125 -21 -142 17 -18 14 -148 -3 -148 -9 0 -16 -19 -16 -41 0 -23 7 -37 16 -31 9 5 26 -17 38 -49 13 -33 14 -59 4 -59 -10 0 -18 -14 -18 -31 0 -17 8 -27 17 -21 9 6 17 -1 18 -14 0 -13 7 -55 15 -94 10 -52 8 -62 -8 -40 -12 17 -22 49 -22 72 0 23 -13 41 -29 41 -22 0 -24 -9 -9 -37 11 -21 17 -53 13 -72 -5 -19 10 -65 32 -103 22 -37 31 -62 18 -54 -12 7 -28 4 -35 -8 -9 -14 -23 -13 -44 4 -16 14 -54 26 -83 26 -47 1 -52 8 -47 64 4 35 -3 69 -15 76 -12 8 -21 -3 -21 -27 0 -22 -8 -45 -18 -51 -9 -5 -14 -53 -10 -106 6 -85 5 -88 -10 -28 -26 100 -70 133 -54 40 14 -77 -36 -128 -71 -73 -11 18 -16 13 -17 -16 0 -67 -69 -120 -73 -57 -1 27 6 43 17 37 11 -7 5 15 -12 49 -18 33 -33 77 -34 97 -1 22 -5 26 -11 11 -6 -14 -1 -52 10 -85 21 -61 -7 -110 -29 -51 -23 60 -53 32 -42 -39 6 -38 5 -70 -2 -70 -8 0 -36 -6 -64 -14 -45 -12 -47 -9 -23 20 15 19 36 29 45 23 10 -6 18 3 18 21 0 18 -9 27 -20 20 -11 -7 -26 3 -33 22 -12 31 -16 31 -42 -4 -25 -35 -26 -33 -14 22 13 58 13 59 -20 20 -19 -22 -29 -29 -22 -16 6 13 4 28 -5 33 -8 6 -17 -8 -19 -31 -2 -23 -11 -50 -20 -59 -10 -10 -16 7 -14 38 4 61 -25 157 -43 140 -6 -7 -2 -29 10 -51 15 -29 13 -48 -10 -76 -30 -36 -31 -36 -20 -1 20 60 -11 83 -40 31 -24 -44 -26 -39 -21 57 3 58 -1 105 -8 105 -26 0 -38 -59 -27 -125 l10 -65 -33 58 c-35 60 -77 40 -54 -26 9 -27 5 -27 -26 2 -31 29 -33 45 -15 104 14 45 15 72 2 77 -11 3 -14 37 -5 82 10 52 22 72 41 65 15 -6 27 -4 25 4 -5 38 6 57 34 57 18 0 26 -11 20 -27 -6 -16 -2 -23 9 -16 11 7 20 1 20 -14 1 -20 5 -20 18 2 10 15 16 68 14 116 -2 49 2 92 10 97 8 5 30 59 49 119 39 124 52 133 86 58 21 -46 18 -58 -27 -99 -53 -49 -91 -128 -89 -185 0 -19 20 8 45 60 32 69 51 90 71 78 21 -13 22 -26 4 -59 -12 -24 -18 -43 -12 -43 5 0 24 27 41 60 17 33 42 58 55 55 34 -7 43 93 15 146 -16 29 -36 39 -64 32 -22 -6 -35 -5 -29 1 7 6 3 27 -8 47 -22 42 -125 5 -147 -53 -15 -40 4 -73 32 -55 36 22 -7 -40 -48 -69 -20 -15 -36 -47 -36 -73 0 -25 -14 -57 -30 -71 -25 -21 -26 -31 -5 -56 21 -27 20 -29 -10 -18 -26 9 -35 3 -35 -27 0 -21 -8 -39 -19 -39 -42 0 -81 -67 -81 -140 0 -43 -9 -83 -20 -90 -11 -7 -20 2 -20 20 0 18 -9 27 -20 20 -11 -7 -20 1 -20 18 0 16 9 35 20 42 11 7 20 22 20 35 0 12 -6 16 -13 8 -7 -7 -27 6 -43 29 -27 39 -25 46 24 88 32 28 48 57 41 76 -19 50 -109 2 -126 -66 -11 -47 -20 -253 -9 -225 15 40 66 29 66 -15 0 -22 8 -40 17 -40 25 0 11 -147 -15 -156 -12 -4 -22 7 -22 24 0 19 -11 26 -30 19 -35 -13 -39 19 -8 76 12 22 16 45 10 51 -6 6 -21 -13 -35 -42 -30 -66 -62 -28 -35 42 10 27 10 43 0 37 -10 -6 -22 8 -28 31 -6 23 -21 36 -33 29 -41 -26 -20 27 23 58 25 17 37 31 28 31 -9 0 -6 14 8 30 29 35 13 38 -44 8 -45 -24 -42 -15 26 84 29 41 31 57 12 78 -19 20 -19 23 1 12 15 -8 25 -3 25 13 0 14 27 42 60 62 57 34 83 93 40 93 -11 0 -20 -11 -20 -25 0 -14 -20 -38 -45 -53 -35 -21 -40 -21 -20 0 14 14 25 40 25 57 -1 27 -3 27 -20 1 -16 -26 -17 30 -1 138 0 5 17 -5 36 -22 74 -64 81 -60 60 39 -20 100 -55 160 -55 96 0 -36 -1 -36 -40 -1 -40 36 -42 36 -83 -9 -31 -33 -46 -38 -58 -20 -11 18 -18 14 -25 -13 -6 -26 -10 -21 -12 18 -1 31 6 51 16 45 20 -12 122 63 122 90 0 33 -57 21 -78 -16 -16 -27 -21 -28 -21 -5 -1 45 24 75 69 83 53 9 69 35 70 110 0 70 39 114 86 96 47 -18 57 -65 16 -78 -35 -11 -49 -92 -17 -91 8 0 22 0 32 0 22 0 64 142 49 166 -6 11 1 15 16 10 35 -11 48 -110 19 -145 -37 -44 -2 -88 120 -153 129 -69 151 -69 142 -3 -3 25 4 45 17 45 12 0 16 -11 8 -23 -10 -16 -4 -20 18 -11 29 11 63 -15 64 -49 1 -38 30 -37 30 1 0 30 11 43 35 41 19 -2 53 -2 75 -1 69 5 -15 42 -114 51 -47 4 -102 13 -122 21 -20 8 -41 10 -47 3 -7 -6 -25 2 -41 18 -32 33 -95 40 -76 9 7 -11 3 -20 -8 -20 -32 0 -67 79 -55 124 17 65 -20 138 -61 122 -29 -11 -30 -9 -10 15 13 16 43 54 66 84 22 30 51 55 64 55 14 0 12 -9 -6 -20 -26 -17 -25 -19 5 -20 19 0 35 -10 35 -21 0 -12 -9 -16 -20 -9 -11 7 -26 -1 -32 -19 -7 -17 -21 -25 -32 -19 -10 7 -7 -7 7 -29 22 -35 29 -37 42 -12 10 16 30 29 46 29 16 0 39 17 52 37 14 23 38 34 60 28 33 -9 33 -13 7 -52 -29 -41 -42 -92 -18 -68 37 37 61 -37 34 -105 l-27 -70 40 47 c23 26 41 68 41 94 0 26 7 51 16 57 9 5 13 -38 9 -97 -10 -136 17 -153 104 -66 l68 68 11 -59 c7 -32 7 -66 1 -76 -6 -10 2 -13 18 -7 15 6 28 22 27 35 -4 145 33 210 57 99 24 -111 46 -139 39 -49 -11 122 4 155 50 114 41 -37 80 18 41 57 -15 15 -21 13 -21 -4 0 -14 -8 -20 -19 -14 -17 11 -22 91 -6 91 31 0 106 -117 99 -154 -5 -27 0 -40 12 -32 13 7 16 0 9 -19 -13 -33 30 -63 55 -39 7 8 23 14 35 14 12 0 25 14 30 30 7 26 5 26 -12 1 -21 -30 -63 42 -63 106 0 13 -15 46 -33 72 -25 35 -26 43 -5 31 57 -33 103 -81 121 -128 10 -26 24 -42 31 -35 7 7 24 3 39 -10 20 -16 27 -16 27 1 0 12 -10 22 -22 22 -12 0 -18 12 -12 28 6 15 0 39 -13 52 -18 20 -17 23 2 12 14 -8 25 -5 25 6 0 11 -16 29 -35 40 -19 12 -26 21 -14 21 38 1 24 101 -13 101 -63 0 -96 22 -83 55 9 24 3 29 -23 18 -19 -7 -50 -13 -69 -13 -18 0 -82 -40 -141 -88 -98 -81 -290 -129 -275 -69 13 53 -179 201 -249 191 -41 -5 -83 -1 -94 10 -12 12 -17 -3 -12 -42z m1219 -259 c0 -71 -38 -85 -70 -24 -18 33 -15 38 19 31 46 -9 51 10 15 49 -20 21 -19 24 5 17 18 -6 30 -34 31 -73z m37 -487 c16 -97 -2 -130 -20 -39 -7 35 -20 63 -28 63 -9 0 -20 17 -25 37 -7 29 -1 36 25 29 23 -6 40 -37 48 -90z m-1541 -86 c8 -19 0 -30 -22 -30 -25 0 -27 -6 -10 -23 29 -29 -41 -137 -89 -137 -22 0 -28 -14 -21 -51 6 -32 -2 -57 -23 -71 -28 -19 -28 -20 3 -10 19 6 35 1 35 -10 0 -11 11 -14 24 -6 13 8 3 -18 -22 -58 -35 -58 -39 -74 -16 -74 48 0 55 -53 13 -101 l-38 -44 -21 54 c-25 68 -26 111 0 111 11 0 20 14 20 30 0 17 -8 30 -17 30 -10 0 -15 36 -11 80 7 81 57 180 92 180 42 0 77 55 43 68 -27 11 -27 18 -5 47 22 29 19 28 -17 -3 -24 -20 -38 -47 -31 -58 7 -11 4 -15 -7 -8 -11 6 -46 -16 -78 -51 -61 -64 -93 -42 -59 41 13 30 16 30 31 -6 15 -38 31 14 22 74 -2 8 10 10 25 4 15 -6 32 4 39 21 15 40 125 41 140 1z m-151 -627 c18 -12 12 -22 -24 -38 -38 -18 -51 -17 -59 5 -6 15 0 32 13 37 35 14 41 14 70 -4z"/> <path d="M1759 2920 c-22 -104 -16 -117 36 -84 20 13 19 25 -4 55 -17 22 -31 35 -32 29z"/> <path d="M4379 2818 c-2 -44 -3 -45 -18 -8 -19 45 -35 21 -46 -70 -3 -27 -12 -60 -20 -72 -7 -12 0 -21 16 -21 16 0 29 16 29 37 0 20 14 42 30 49 17 6 30 25 30 42 0 25 5 26 35 3 27 -21 26 -16 -5 22 -22 28 -42 54 -45 58 -3 5 -6 -13 -6 -40z"/> <path d="M4401 2635 c-1 -73 28 -93 64 -45 18 25 20 82 2 64 -7 -8 -25 2 -39 21 -24 31 -27 26 -27 -40z"/> <path d="M2764 2662 c-37 -22 -66 -138 -39 -155 12 -8 15 -4 7 10 -16 25 40 23 83 -4 14 -8 25 -7 25 4 0 11 -11 23 -24 28 -14 4 -18 22 -9 46 13 32 18 33 34 8 15 -24 18 -24 19 5 0 42 -62 79 -96 58z"/> <path d="M4273 2555 c-18 -66 -16 -135 4 -135 10 0 14 25 10 55 -6 46 -5 49 11 15 15 -34 18 -29 17 26 -1 79 -26 101 -42 39z"/> <path d="M3600 2479 c0 -9 -32 -23 -71 -31 -47 -8 -68 -22 -61 -39 12 -33 -22 -62 -93 -80 -30 -7 -55 -22 -55 -32 0 -11 -9 -14 -20 -7 -11 7 -20 -1 -20 -17 0 -45 186 17 303 101 107 77 117 96 57 112 -22 6 -40 3 -40 -7z"/> <path d="M3350 2407 c-141 -30 -143 -31 -101 -46 45 -17 191 15 191 41 0 19 -21 20 -90 5z"/> <path d="M4161 2349 c-1 -23 -9 -50 -19 -60 -35 -38 -46 -145 -16 -162 15 -9 32 -30 37 -46 6 -18 15 -21 22 -9 7 12 1 44 -14 73 -24 46 -23 51 6 46 39 -8 43 98 6 162 -21 35 -22 35 -22 -4z"/> <path d="M3310 2140 c-7 -11 -3 -20 9 -20 11 0 22 -20 23 -45 0 -25 6 -34 11 -20 20 48 59 -22 59 -105 -1 -70 5 -80 45 -82 45 -3 49 79 6 112 -7 5 -31 46 -53 90 -41 81 -78 106 -100 70z"/> <path d="M3150 2100 c-20 -62 -25 -221 -8 -231 11 -7 40 99 47 174 2 26 31 43 34 20 5 -52 8 -60 22 -75 8 -8 15 14 15 49 0 47 -9 63 -35 63 -30 1 -31 3 -5 20 24 16 22 19 -14 20 -26 0 -48 -16 -56 -40z"/> <path d="M3300 2090 c-6 -30 -1 -146 13 -280 13 -119 13 -119 38 -60 20 48 20 66 1 90 -32 38 -38 140 -9 140 15 0 16 8 2 25 -12 14 -25 43 -31 65 -5 22 -11 31 -14 20z"/> <path d="M3542 2035 c2 -42 6 -51 13 -26 8 34 13 31 34 -20 23 -56 24 -57 36 -14 6 25 3 40 -6 34 -10 -6 -24 12 -31 40 -18 73 -48 63 -46 -14z"/> <path d="M4117 2055 c-2 -30 -4 -65 -5 -78 -1 -13 9 -27 23 -32 30 -10 34 90 5 135 -15 24 -20 18 -23 -25z"/> <path d="M2583 2048 c-28 -14 -37 -27 -21 -32 19 -6 20 -27 4 -90 -19 -74 -17 -80 17 -71 20 5 37 18 37 27 0 10 16 18 35 18 28 1 29 4 8 18 -23 14 -21 22 10 39 31 18 32 22 4 22 -18 1 -38 16 -45 34 -11 26 -8 28 16 9 29 -24 70 6 44 33 -7 6 -12 -1 -13 -17 0 -23 -5 -22 -25 3 -20 25 -33 27 -71 7z"/> <path d="M3231 1940 c-23 -35 -28 -240 -7 -240 21 0 40 121 33 201 -5 53 -11 62 -26 39z"/> <path d="M3522 1869 c-28 -103 -28 -114 9 -160 18 -22 26 -28 19 -14 -23 46 -31 125 -13 125 37 0 69 -214 36 -234 -10 -6 -5 -19 10 -28 49 -31 62 -19 49 45 -9 45 -3 74 21 100 18 21 27 44 19 52 -8 7 -21 3 -30 -11 -10 -18 -22 -10 -39 27 -13 29 -20 58 -15 66 5 7 -3 36 -18 62 l-26 49 -22 -79z"/> <path d="M3040 1870 c-3 -22 -6 -51 -6 -64 1 -14 -9 -23 -21 -20 -13 2 -21 -7 -18 -20 2 -14 -8 -20 -24 -13 -20 7 -33 -7 -42 -46 -7 -31 -16 -70 -21 -85 -7 -22 -3 -23 21 -3 16 13 38 19 49 12 11 -6 29 4 40 24 15 24 21 27 21 7 1 -22 9 -21 39 6 20 18 37 58 37 88 -1 30 -5 43 -10 29 -17 -49 -43 -24 -50 50 -5 41 -11 57 -15 35z"/> <path d="M3362 1650 c-1 -22 16 -76 37 -120 l38 -80 1 64 c1 35 -8 70 -19 77 -12 7 -30 32 -39 56 -17 41 -18 41 -18 3z"/> <path d="M3077 1596 c-49 -97 -58 -133 -36 -147 10 -6 19 4 19 23 0 18 14 44 32 57 19 14 29 45 25 78 l-7 56 -33 -67z"/> <path d="M3174 1632 c-8 -19 -13 -50 -12 -69 1 -22 5 -25 12 -7 8 20 20 18 51 -10 40 -35 41 -35 28 1 -7 20 -13 50 -13 66 0 16 -8 24 -18 18 -10 -6 -22 0 -27 13 -5 15 -13 10 -21 -12z"/> <path d="M2723 1589 c-13 -28 -22 -80 -22 -115 1 -58 3 -60 20 -19 10 25 35 45 55 45 42 0 118 73 97 93 -7 8 -13 3 -13 -11 0 -13 -9 -19 -20 -12 -11 7 -20 -2 -20 -19 0 -20 -16 -29 -50 -26 -57 4 -57 4 -28 58 12 22 17 44 13 49 -5 4 -19 -15 -32 -43z"/> <path d="M4271 1376 c-54 -407 -464 -972 -938 -1291 l-97 -65 -317 0 -317 0 -86 82 c-47 45 -110 99 -140 121 l-54 38 -35 -55 c-19 -31 -66 -90 -105 -131 -59 -64 -64 -75 -31 -75 22 0 60 31 87 70 26 39 56 70 66 70 27 0 -4 -86 -42 -114 -25 -20 99 -25 605 -25 558 -1 636 3 626 29 -7 19 0 30 20 30 20 0 27 -11 20 -30 -15 -38 21 -39 58 -2 24 24 22 29 -8 37 -20 5 -36 23 -36 40 0 18 11 27 26 21 15 -6 21 -20 14 -33 -8 -13 -6 -16 3 -8 9 8 31 4 48 -10 18 -14 15 -4 -7 22 -42 48 -6 106 38 62 30 -30 45 -23 58 25 11 44 12 44 56 5 l45 -39 -34 55 c-19 30 -25 55 -14 55 12 0 27 -14 33 -32 9 -21 17 -24 26 -9 10 15 31 9 66 -18 61 -49 78 -52 62 -12 -6 17 -20 28 -31 25 -34 -7 -66 108 -36 126 18 11 15 21 -13 38 -31 19 -28 20 21 9 48 -11 56 -7 46 19 -9 25 9 21 92 -17 107 -49 148 -117 85 -141 -17 -7 -31 -20 -31 -30 0 -134 381 384 496 672 17 44 36 85 43 90 19 17 81 142 81 164 0 11 -20 15 -45 9 -47 -12 -120 10 -275 82 -128 60 -64 55 72 -5 62 -27 132 -49 155 -49 53 2 -24 39 -117 58 -11 2 -33 16 -50 30 -16 15 -59 33 -95 40 -36 8 -65 22 -65 31 0 16 75 -4 190 -51 33 -14 92 -38 130 -54 97 -40 128 -25 75 36 -23 27 -51 49 -62 49 -64 0 -336 129 -301 142 35 14 35 15 -4 17 -37 1 -45 -14 -57 -103z m219 -26 c66 -28 131 -50 144 -50 13 0 30 -10 37 -22 16 -26 -107 -5 -143 25 -13 10 -71 35 -130 56 -60 21 -90 39 -68 39 22 1 94 -21 160 -48z m-16 -190 c47 -22 104 -40 126 -40 22 0 40 -10 40 -22 0 -28 -93 -7 -198 43 -44 22 -89 39 -100 39 -11 0 -25 9 -31 19 -17 27 63 8 163 -39z m-14 -61 c147 -51 190 -79 124 -79 -24 0 -44 9 -44 20 0 11 -20 20 -45 21 -25 0 -85 23 -135 51 -100 56 -89 54 100 -13z m132 -124 c24 -24 -56 -17 -140 13 -43 15 -65 31 -50 36 30 10 166 -26 190 -49z m-137 -25 c58 -18 105 -42 105 -52 0 -33 -224 40 -250 81 -6 12 0 17 14 12 14 -4 73 -23 131 -41z m-74 -53 c122 -40 192 -77 147 -77 -42 0 -239 65 -277 92 -56 39 -20 35 130 -15z m88 -119 c11 -11 5 -18 -17 -18 -45 0 -232 84 -232 105 0 16 220 -60 249 -87z m-114 -24 c67 -27 99 -48 86 -61 -12 -12 -36 -8 -65 11 -25 16 -80 41 -121 55 -41 13 -75 32 -75 42 0 20 22 14 175 -47z m-73 -47 c95 -42 152 -87 111 -87 -18 0 -273 122 -273 130 0 21 50 8 162 -43z m-50 -55 c56 -26 107 -61 114 -79 15 -38 -3 -32 -171 59 -144 77 -100 93 57 20z m-43 -63 c59 -27 113 -64 119 -81 7 -17 5 -28 -3 -25 -76 35 -265 140 -265 147 0 21 46 8 149 -41z m-15 -84 c79 -42 126 -85 94 -85 -32 0 -148 49 -148 62 0 7 -22 19 -50 26 -27 7 -50 26 -50 42 0 32 20 26 154 -45z m-121 -26 c12 -12 51 -36 88 -55 76 -39 104 -87 40 -70 -22 6 -41 17 -41 24 0 7 -45 31 -100 52 -78 30 -93 42 -65 53 49 20 54 20 78 -4z"/> <path d="M4793 1306 c-7 -6 -3 -27 7 -47 33 -61 38 -210 11 -322 -15 -59 -28 -91 -29 -72 -2 35 -42 51 -42 17 0 -9 -20 -23 -45 -30 -43 -12 -43 -14 -8 -35 36 -20 34 -25 -20 -71 -31 -27 -44 -42 -29 -34 18 9 23 6 14 -8 -7 -12 -26 -17 -43 -11 -36 14 -38 -15 -4 -52 20 -21 20 -24 0 -13 -17 10 -25 -1 -25 -32 0 -26 -22 -63 -50 -84 -27 -20 -45 -44 -40 -51 5 -8 -18 -40 -50 -71 -32 -31 -54 -63 -49 -72 6 -9 -8 -35 -31 -58 -27 -27 -38 -56 -30 -81 10 -29 5 -36 -19 -27 -37 15 -41 -14 -6 -49 20 -20 18 -23 -13 -11 -27 10 -35 7 -28 -14 5 -15 31 -32 58 -37 36 -7 25 -12 -42 -22 -54 -8 23 -13 190 -14 154 0 264 4 245 9 -20 5 -35 27 -34 52 0 40 2 41 21 9 25 -43 67 -47 50 -4 -6 18 -3 26 8 19 11 -7 20 9 20 36 0 27 14 60 30 74 35 29 40 80 8 80 -12 0 -17 -13 -12 -28 16 -39 -7 -56 -39 -29 -21 17 -27 15 -27 -8 0 -17 -14 -36 -31 -43 -17 -6 -26 -21 -19 -32 7 -11 -3 -20 -21 -20 -25 0 -31 -13 -24 -50 9 -48 5 -50 -87 -50 -97 0 -144 26 -87 48 18 6 26 21 19 32 -7 11 2 20 20 20 18 0 41 27 53 60 12 33 29 60 39 60 10 0 18 17 18 39 0 21 17 50 37 65 21 14 38 35 40 46 1 11 20 23 42 26 47 8 110 -45 91 -76 -7 -11 2 -20 20 -20 21 0 30 14 26 37 -3 20 6 51 20 69 15 17 24 57 20 87 -4 38 9 71 40 101 25 26 41 54 35 64 -6 10 16 69 49 131 87 166 115 269 79 292 -20 13 -21 18 -4 19 33 0 32 33 -2 46 -57 22 -76 -17 -34 -71 23 -28 41 -57 41 -63 0 -25 -62 -11 -72 16 -6 16 -37 39 -68 52 -36 15 -53 34 -47 52 14 35 -35 37 -71 3 -22 -21 -22 -17 0 19 14 24 33 39 42 34 35 -22 13 8 -42 57 -32 29 -63 47 -69 41z m49 -711 c-1 -8 -2 -29 -2 -46 0 -17 -8 -26 -19 -20 -10 6 -24 3 -31 -9 -7 -11 4 -21 24 -21 32 -2 32 -4 -4 -19 -33 -14 -34 -17 -6 -19 18 0 39 -10 46 -21 8 -13 -4 -14 -34 -3 -25 10 -59 14 -76 9 -20 -5 -18 -1 5 14 27 17 31 31 15 60 -15 28 -12 45 12 70 32 31 73 34 70 5z m-418 -370 c-13 -5 -20 -16 -14 -24 5 -9 -4 -28 -20 -41 -18 -15 -30 -17 -30 -4 0 11 11 25 25 31 14 5 8 11 -14 11 -38 2 -38 2 0 30 21 16 47 23 58 17 11 -7 9 -16 -5 -20z"/> <path d="M1484 1222 c-92 -42 -177 -87 -190 -100 -26 -26 54 5 203 78 49 24 118 48 155 54 37 6 62 19 56 29 -17 28 -49 19 -224 -61z"/> <path d="M1456 1151 c-96 -47 -179 -81 -185 -75 -6 6 -11 -8 -11 -31 0 -23 -11 -45 -24 -50 -15 -5 -11 -13 10 -21 24 -9 34 -2 34 24 0 45 25 65 130 106 44 17 127 50 185 73 58 23 105 36 105 28 -1 -8 -52 -36 -115 -62 -182 -74 -288 -126 -278 -136 5 -5 95 27 200 72 210 89 213 90 213 61 0 -11 -10 -20 -23 -20 -45 0 -368 -146 -413 -187 l-46 -42 46 -16 c30 -12 52 -9 66 9 11 14 34 28 50 29 17 2 80 23 140 47 152 61 234 74 130 22 -44 -22 -86 -41 -93 -41 -7 -1 -63 -24 -126 -53 -186 -85 -111 -77 100 11 212 89 311 103 117 17 -286 -126 -298 -133 -255 -134 47 -2 259 88 310 132 21 18 38 21 45 8 15 -24 -265 -161 -361 -176 -37 -6 -67 -19 -67 -30 0 -32 145 5 297 76 157 73 183 79 183 48 0 -11 -17 -20 -38 -20 -20 0 -48 -13 -62 -30 -14 -16 -38 -30 -55 -30 -17 0 -60 -19 -97 -41 -59 -37 -116 -53 -203 -58 -16 0 -10 -16 15 -41 51 -51 50 -69 -5 -96 -44 -21 -44 -21 9 -23 39 -1 63 -17 84 -56 15 -30 34 -53 40 -50 30 13 52 2 52 -25 0 -16 9 -30 20 -30 11 0 20 -18 20 -40 0 -22 13 -40 30 -40 17 0 30 -11 31 -25 0 -17 8 -15 25 5 31 40 314 207 327 194 12 -13 -171 -154 -201 -154 -12 -1 -44 -18 -71 -38 l-48 -38 38 -57 c21 -31 36 -64 33 -72 -2 -8 5 -15 15 -15 11 0 15 -14 8 -30 -9 -24 8 -30 91 -30 56 0 102 7 102 16 0 27 87 125 175 197 118 97 106 55 -24 -86 -59 -64 -100 -120 -90 -123 10 -4 47 28 83 70 36 42 91 101 121 132 52 54 44 114 -17 114 -20 0 -233 -201 -258 -243 -11 -19 -24 -34 -30 -34 -5 0 -26 -7 -46 -14 -20 -8 -40 -9 -46 -4 -12 12 309 295 335 295 9 0 17 9 17 20 0 43 -111 -31 -286 -189 -58 -53 -85 -62 -102 -35 -11 18 124 124 258 203 103 62 102 61 79 77 -27 19 -96 177 -100 228 -1 22 -11 46 -21 53 -58 42 -216 324 -288 514 -27 69 -80 62 -284 -40z m164 -118 c-116 -57 -326 -134 -337 -123 -4 5 13 17 39 28 27 11 111 47 188 80 164 69 241 80 110 15z m131 -295 c-66 -33 -129 -68 -140 -76 -40 -31 -151 -60 -151 -40 0 10 16 25 35 31 19 6 98 42 174 79 77 38 153 68 170 67 17 0 -23 -28 -88 -61z m127 -5 c-49 -39 -398 -209 -398 -194 0 23 333 198 378 200 16 1 25 -2 20 -6z m22 -48 c-1 -19 -132 -105 -161 -105 -12 0 -54 -22 -95 -50 -72 -49 -124 -64 -124 -35 0 8 84 57 185 109 211 107 195 101 195 81z m10 -75 c-22 -16 -53 -40 -68 -53 -46 -40 -266 -139 -290 -131 -12 4 64 53 168 108 188 100 267 131 190 76z m21 -81 c-21 -16 -46 -29 -56 -29 -9 0 -41 -23 -71 -50 -58 -54 -169 -99 -209 -84 -14 5 16 27 65 49 50 22 125 63 168 92 84 57 175 77 103 22z m83 -22 c-52 -51 -347 -221 -370 -212 -27 10 85 82 286 184 85 42 105 49 84 28z m37 -145 c-20 -33 -294 -206 -306 -193 -18 17 15 45 158 133 126 77 170 95 148 60z"/> <path d="M2364 1045 c4 -22 29 -38 66 -42 59 -7 59 -6 22 35 -47 51 -97 55 -88 7z"/> <path d="M5280 1046 c0 -14 -11 -26 -25 -26 -17 -1 -15 -7 5 -20 27 -18 27 -22 0 -40 -16 -11 -21 -20 -9 -20 12 0 32 11 46 25 20 20 22 17 11 -13 -10 -26 -8 -34 7 -25 14 9 21 -2 20 -27 -2 -22 -15 -40 -29 -40 -14 0 -20 13 -12 32 10 28 6 29 -30 6 -23 -14 -37 -32 -33 -40 5 -8 -2 -19 -16 -25 -20 -8 -20 -14 1 -28 38 -27 6 -85 -48 -85 -33 0 -43 -9 -35 -30 6 -17 -3 -35 -21 -42 -18 -7 -32 -34 -32 -60 0 -26 -11 -48 -23 -48 -13 0 -17 -7 -9 -15 9 -8 28 3 44 25 17 22 34 38 39 35 26 -14 35 -2 9 14 -21 14 -23 26 -8 41 15 15 32 8 59 -23 22 -24 28 -38 15 -30 -13 8 -28 -2 -35 -25 -8 -24 -39 -43 -85 -51 -54 -11 -66 -19 -45 -32 24 -15 24 -18 2 -19 -23 0 -23 -6 -3 -30 20 -24 20 -30 0 -30 -15 0 -20 -16 -14 -41 9 -33 3 -38 -28 -28 -31 9 -38 2 -38 -40 0 -28 -9 -51 -19 -51 -11 0 -15 -13 -8 -30 6 -16 1 -30 -12 -30 -13 0 -18 -9 -11 -20 7 -11 -1 -20 -18 -20 -19 0 -26 -11 -19 -30 7 -20 -1 -30 -24 -30 -20 0 -30 -6 -23 -13 8 -7 4 -25 -9 -40 -18 -22 13 -27 176 -26 178 0 193 3 158 30 -21 16 -27 29 -14 29 14 0 20 9 13 20 -7 11 -4 20 6 20 22 0 64 89 64 136 0 19 22 88 50 154 27 66 49 144 50 173 0 30 8 57 17 60 9 4 23 32 30 61 11 47 8 53 -21 42 -31 -12 -31 -10 -5 18 16 18 35 28 42 24 7 -4 18 5 24 21 6 16 0 33 -13 38 -13 5 -6 9 16 10 106 1 155 32 87 54 l-46 15 49 20 50 21 -48 8 c-26 5 -54 -2 -62 -14 -9 -16 -22 -12 -42 12 -25 30 -24 33 6 22 37 -14 63 13 67 70 1 22 -12 35 -36 35 -23 0 -32 -9 -23 -23 10 -16 5 -18 -13 -6 -43 26 -119 23 -119 -5z"/> <path d="M2709 896 c60 -34 131 -37 131 -4 0 15 -9 28 -20 28 -11 0 -20 -9 -20 -21 0 -14 -12 -14 -39 0 -52 29 -101 26 -52 -3z"/> <path d="M851 822 c-7 -12 -4 -22 8 -22 25 0 19 -44 -9 -66 -11 -8 7 -9 40 -2 77 17 89 28 32 28 -24 0 -40 7 -34 16 5 9 2 28 -7 42 -11 18 -20 20 -30 4z"/> <path d="M2370 800 c-25 -27 -30 -48 -17 -61 13 -13 32 -6 57 21 22 24 27 40 12 40 -13 0 -19 9 -12 20 21 34 -2 22 -40 -20z"/> <path d="M3305 787 c-43 -18 -30 -73 15 -61 22 6 35 2 29 -8 -6 -10 0 -18 15 -18 19 -1 18 -6 -4 -19 -24 -16 -21 -19 11 -16 48 3 22 95 -27 95 -15 0 -21 9 -14 20 13 22 12 22 -25 7z"/> <path d="M617 742 c-13 -21 -35 -34 -49 -29 -31 12 -55 -26 -27 -44 14 -8 9 -23 -15 -40 -21 -17 -26 -28 -11 -28 41 -1 28 -30 -30 -66 l-55 -35 109 11 c60 7 119 16 130 22 12 5 3 -6 -19 -26 -38 -34 -38 -40 -9 -69 59 -57 79 -62 79 -20 0 27 -10 37 -28 30 -15 -6 -34 -1 -41 11 -7 11 -2 21 13 21 14 0 36 23 49 50 20 42 18 50 -9 50 -26 0 -25 5 7 29 26 20 30 30 12 30 -22 1 -23 7 -3 31 36 44 11 89 -42 75 -30 -8 -40 -4 -30 12 8 13 9 23 3 23 -6 0 -21 -17 -34 -38z"/> <path d="M2843 764 c-2 -15 -12 -21 -23 -14 -11 7 -20 -3 -20 -22 0 -19 -6 -29 -13 -22 -18 19 -69 -26 -56 -48 6 -10 29 -18 51 -18 22 0 35 -8 29 -19 -22 -35 26 -41 59 -8 19 19 25 38 13 45 -11 7 -23 39 -28 72 -5 33 -10 48 -12 34z"/> <path d="M3262 675 c-2 -37 -42 -50 -42 -14 0 12 -12 10 -28 -5 -30 -28 -22 -65 9 -45 11 6 19 2 19 -9 0 -11 13 -16 30 -9 16 6 25 18 20 27 -5 9 4 21 20 27 17 7 30 23 30 37 -1 20 -5 20 -18 -1 -14 -23 -19 -23 -28 0 -8 19 -11 16 -12 -8z"/> <path d="M5850 680 c7 -11 -1 -20 -16 -20 -16 0 -40 -13 -54 -30 -17 -21 -18 -30 -2 -30 12 0 22 8 22 18 0 10 23 23 50 30 55 14 69 52 19 52 -17 0 -26 -9 -19 -20z"/> <path d="M339 581 c11 -19 14 -41 7 -48 -7 -7 2 -13 19 -13 18 0 39 10 47 23 9 15 5 18 -11 8 -18 -12 -22 -5 -13 22 9 29 2 39 -28 42 -33 2 -37 -4 -21 -34z"/> <path d="M230 391 c-48 -39 -53 -50 -24 -50 20 -1 31 -9 25 -20 -7 -10 6 -17 28 -16 22 2 44 15 50 29 5 14 26 26 45 25 31 0 32 -3 6 -25 -44 -35 -47 -75 -5 -60 19 7 41 23 49 34 10 15 22 14 39 -3 14 -14 43 -24 66 -24 37 1 36 3 -7 21 -26 10 -42 24 -36 31 7 7 36 -3 64 -21 29 -19 67 -32 86 -29 39 7 84 -17 84 -44 0 -10 -15 -12 -33 -5 -20 8 -29 5 -21 -7 7 -11 0 -20 -16 -20 -16 0 -24 7 -18 16 6 10 -4 17 -22 17 -18 0 -27 -8 -21 -19 6 -10 -8 -32 -33 -50 -53 -37 -33 -42 24 -7 31 20 44 20 65 -2 19 -22 19 -25 0 -14 -14 8 -25 5 -25 -5 0 -64 106 -46 143 23 l23 44 -46 -40 -46 -40 35 55 c20 30 28 55 18 55 -9 0 -4 9 11 19 21 13 5 24 -60 43 -48 14 -93 33 -99 42 -6 9 -38 17 -70 20 -33 2 -72 13 -89 25 -27 19 -27 17 0 -17 29 -37 28 -37 -18 -13 -27 14 -79 21 -120 15 -62 -9 -66 -8 -27 11 25 11 45 29 45 38 0 24 -3 23 -70 -32z"/> <path d="M838 352 c18 -22 18 -30 -2 -37 -51 -17 20 -110 76 -100 65 13 61 43 -5 39 -30 -2 -57 8 -62 24 -6 16 -1 22 11 15 51 -32 86 10 41 49 -50 44 -93 51 -59 10z"/> <path d="M3989 341 c19 -30 130 -79 140 -62 5 8 -10 25 -35 36 -72 35 -117 46 -105 26z"/> <path d="M3950 271 c69 -57 103 -64 103 -21 0 18 -18 30 -45 30 -25 0 -51 9 -58 20 -7 11 -23 20 -36 20 -13 0 3 -22 36 -49z"/> <path d="M280 242 c0 -46 94 -70 131 -34 43 43 25 62 -31 32 -32 -17 -49 -17 -71 1 -21 17 -29 18 -29 1z"/> <path d="M4175 198 c-19 -21 -35 -45 -35 -54 0 -8 -18 -28 -39 -43 -21 -16 -33 -37 -27 -48 7 -10 3 -13 -9 -6 -11 7 -26 -1 -32 -17 -9 -23 3 -30 49 -30 54 0 65 12 109 111 64 144 59 170 -16 87z"/> <path d="M3881 138 c0 -17 6 -38 14 -46 25 -25 18 -61 -15 -76 -19 -8 -10 -14 27 -15 49 -1 54 3 33 29 -20 25 -19 30 8 30 17 0 32 9 32 19 0 11 -13 15 -30 8 -19 -7 -37 6 -49 36 -11 29 -19 35 -20 15z"/> </g> </svg> 